<svg width="1140" height="87" viewBox="0 0 1140 87" fill="none" xmlns="http://www.w3.org/2000/svg">
<path d="M104 36.7241C103.464 35.0984 102.957 33.7249 102.562 32.2953C102.308 31.3984 101.8 31.1461 100.926 31.1741C98.1619 31.2863 95.3696 31.1461 92.6338 31.4825C89.898 31.8188 88.0365 31.006 86.7955 28.5673C86.4289 27.8386 85.8084 27.1939 85.2725 26.5492C84.5392 25.6802 84.3981 24.8113 84.8212 23.7181C86.034 20.6348 87.0776 17.4954 88.2903 14.3841C88.6852 13.375 88.4878 12.7583 87.5852 12.1697C85.9212 11.0485 84.3699 9.84319 82.7623 8.72198C80.5059 7.18033 81.1264 7.0682 78.8701 8.75001C76.3881 10.6 73.9061 12.422 71.4523 14.328C70.6626 14.9447 69.9011 15.0288 68.9703 14.6924C67.4755 14.1318 65.9807 13.5712 64.4294 13.2348C63.1038 12.9265 62.4833 12.1697 62.1449 10.9364C61.2423 7.79699 60.227 4.68564 59.3244 1.54626C59.0706 0.649299 58.6193 0.200816 57.6886 0.172786C55.3758 0.144756 53.0913 0.144756 50.8067 0.0326353C49.5375 -0.0234251 48.8324 0.425058 48.4657 1.68641C47.6196 4.7417 46.6042 7.74093 45.7299 10.7962C45.3914 12.0015 44.8274 12.7023 43.53 12.9826C41.8941 13.347 40.2583 13.8515 38.707 14.4682C37.6352 14.8886 36.8455 14.6924 35.9994 14.0477C33.2354 11.9455 30.4431 9.89925 27.7073 7.76896C26.974 7.20836 26.4099 7.20836 25.7048 7.74093C23.7305 9.17047 21.728 10.572 19.7254 11.9174C18.8793 12.478 18.8511 13.0667 19.1896 13.9356C20.4306 17.1591 21.6151 20.4106 22.7151 23.6621C22.9125 24.2507 22.7151 25.1477 22.3767 25.6802C21.3613 27.2499 20.1203 28.6795 19.0767 30.2211C18.4562 31.1181 17.7229 31.4825 16.623 31.4264C13.1538 31.2863 9.68467 31.2022 6.18733 31.1741C5.70785 31.1741 4.94634 31.3984 4.80531 31.7347C4.15661 33.3044 3.67714 34.9302 3.05664 36.7241C3.81816 36.7241 4.32584 36.7241 4.86172 36.7241C10.0231 36.7241 15.2127 36.612 20.3741 36.7802C22.4049 36.8362 23.7587 36.4438 24.4356 34.4256C24.6612 33.7809 25.1689 33.2203 25.5355 32.6597C34.0533 19.5977 51.5118 14.328 65.9243 20.3825C73.3984 23.5219 79.0111 28.6234 82.8751 35.715C83.1007 36.1635 83.7212 36.6961 84.1443 36.6961C90.6595 36.7521 97.2029 36.7241 104 36.7241Z" fill="white"/>
<path d="M104 36.7241C97.1745 36.7241 90.6593 36.7522 84.1159 36.6681C83.6928 36.6681 83.0723 36.1355 82.8467 35.687C78.9827 28.5954 73.37 23.4939 65.8958 20.3545C51.5116 14.328 34.053 19.5977 25.4789 32.6317C25.084 33.2204 24.5764 33.7529 24.3789 34.3976C23.702 36.4158 22.3482 36.8362 20.3175 36.7522C15.1561 36.584 9.99469 36.6961 4.80508 36.6961C4.2974 36.6961 3.78972 36.6961 3 36.6961C3.59229 34.9302 4.07177 33.2764 4.74867 31.7067C4.8897 31.3704 5.65121 31.1461 6.13069 31.1461C9.59983 31.1742 13.0972 31.2582 16.5663 31.3984C17.6945 31.4545 18.3996 31.0901 19.0201 30.1931C20.0919 28.6514 21.3047 27.2219 22.32 25.6522C22.6585 25.1196 22.8559 24.2227 22.6585 23.634C21.5585 20.3545 20.3457 17.131 19.1329 13.9076C18.7945 13.0386 18.8509 12.45 19.6688 11.8894C21.6995 10.544 23.6738 9.11442 25.6481 7.71291C26.3532 7.20837 26.9173 7.18034 27.6506 7.74094C30.3865 9.87123 33.2069 11.9174 35.9427 14.0197C36.7889 14.6644 37.5786 14.8886 38.6504 14.4401C40.2016 13.8235 41.8375 13.3189 43.4733 12.9546C44.7707 12.6742 45.3348 11.9735 45.6733 10.7682C46.5194 7.71291 47.5348 4.71369 48.4091 1.6584C48.7757 0.397042 49.4809 -0.0514402 50.7501 0.00462013C53.0346 0.116741 55.3474 0.116741 57.6319 0.144771C58.5909 0.144771 59.0139 0.593253 59.2678 1.51825C60.1703 4.65763 61.1857 7.76897 62.0882 10.9083C62.4267 12.1417 63.0472 12.8985 64.3728 13.2068C65.924 13.5712 67.4189 14.1038 68.9137 14.6644C69.8444 15.0288 70.6059 14.9167 71.3957 14.3C73.8495 12.422 76.3314 10.572 78.8134 8.722C81.0698 7.04019 80.4775 7.15231 82.7056 8.69397C84.3133 9.81517 85.8927 11.0205 87.5286 12.0856C88.4311 12.6742 88.6286 13.2909 88.2337 14.3C87.0491 17.3833 85.9773 20.5227 84.7646 23.634C84.3415 24.7272 84.4825 25.5962 85.2158 26.4651C85.7517 27.1098 86.344 27.7545 86.7389 28.4833C87.9799 30.9219 89.8414 31.7348 92.5772 31.3984C95.313 31.062 98.1052 31.2022 100.869 31.0901C101.744 31.062 102.251 31.3423 102.505 32.2113C102.985 33.7249 103.492 35.0984 104 36.7241Z" fill="#FF3811"/>
<path d="M75.3442 46.1983C72.0161 42.9187 68.6598 39.6112 65.3034 36.2756C64.7111 35.687 64.3445 36.0794 63.9214 36.4998C62.342 38.0976 60.7625 39.6953 59.1549 41.2369C58.1395 42.218 57.0395 43.171 55.9678 44.124C56.0524 44.2642 56.137 44.3763 56.2216 44.5165C59.3523 43.8998 62.0881 44.5445 64.3445 46.7589C66.5726 48.9733 67.1649 51.7482 66.6008 54.7475C69.5341 51.8884 72.3827 49.0854 75.3442 46.1983Z" fill="white"/>
<path d="M51.0322 44.3483C50.6091 43.8718 50.4117 43.5634 50.1579 43.3112C47.9015 41.0688 45.5888 38.8824 43.3888 36.5839C42.5991 35.7711 42.1196 35.7991 41.3581 36.5839C38.4248 39.5551 35.4916 42.4703 32.4737 45.3574C31.7122 46.0862 31.8814 46.5346 32.5301 47.1793C34.8993 49.5058 37.2403 51.8604 39.6094 54.1869C39.8069 54.3831 40.0889 54.4952 40.4274 54.7194C39.4402 47.9922 44.1785 43.3672 51.0322 44.3483Z" fill="white"/>
<path d="M40.0604 33.3604C36.4784 36.9763 33.0093 40.5081 29.5684 43.9838C29.8222 44.3202 30.1607 44.7967 30.4709 45.1891C34.1093 41.5732 37.6066 38.1255 41.3296 34.4536C40.9347 34.1172 40.4835 33.7248 40.0604 33.3604Z" fill="white"/>
<path d="M80.0827 41.5733C79.9981 41.4332 79.9417 41.265 79.8289 41.1249C76.6418 37.9575 73.4829 34.8181 70.2958 31.6507C69.7599 31.1181 69.3651 31.0901 68.7728 31.6507C68.1523 32.2673 68.2651 32.6878 68.8292 33.2484C71.6778 36.0234 74.47 38.8264 77.2905 41.6294C77.7418 42.0779 78.2212 42.4983 78.8699 43.115C79.293 42.5824 79.6315 42.162 80.0827 41.5733Z" fill="white"/>
<path d="M77.8266 43.8157C74.5549 40.5642 71.3396 37.3968 68.1243 34.1733C67.5884 33.6408 67.1371 33.2203 66.4038 34.0052C65.6987 34.762 66.0935 35.2105 66.6576 35.743C69.5345 38.5741 72.3831 41.4051 75.2318 44.2362C76.501 45.5255 76.5292 45.5255 77.8266 43.8157Z" fill="white"/>
<path d="M38.8756 32.3233C37.6064 30.7817 37.6346 30.7817 36.2808 32.0991C33.5168 34.846 30.7527 37.565 28.0169 40.3119C26.6913 41.6293 26.7195 41.7975 28.299 42.6945C31.8245 39.2468 35.3219 35.7991 38.8756 32.3233Z" fill="white"/>
<path d="M75.3442 46.1983C72.3827 49.1134 69.5341 51.8884 66.6008 54.7755C67.1649 51.7763 66.5726 49.0293 64.3445 46.7869C62.0881 44.5445 59.3241 43.9278 56.2216 44.5445C56.137 44.4043 56.0524 44.2922 55.9678 44.1521C57.0395 43.199 58.1113 42.274 59.1549 41.265C60.7625 39.6953 62.342 38.1256 63.9214 36.5279C64.3445 36.1074 64.7111 35.715 65.3034 36.3036C68.6598 39.5831 72.0161 42.8907 75.3442 46.1983ZM67.6444 41.6574C67.0521 42.4422 66.347 42.9748 66.4034 43.3672C66.488 43.8437 67.2213 44.2361 67.6726 44.6566C68.0675 44.2361 68.7444 43.8157 68.7726 43.3672C68.829 42.9187 68.2085 42.4142 67.6444 41.6574Z" fill="#444444"/>
<path d="M51.0322 44.3483C44.1503 43.3672 39.4402 47.9922 40.4274 54.7475C40.0889 54.5232 39.8069 54.4111 39.6094 54.2149C37.2403 51.8884 34.8993 49.5338 32.5301 47.2073C31.8814 46.5627 31.7122 46.1142 32.4737 45.3854C35.4634 42.4983 38.4248 39.5551 41.3581 36.6119C42.1196 35.8271 42.5991 35.7991 43.3888 36.6119C45.5888 38.9104 47.9015 41.0968 50.1579 43.3392C50.4117 43.5634 50.6373 43.8718 51.0322 44.3483ZM41.1889 43.4513C40.3991 42.8066 39.8915 42.1059 39.5248 42.1619C39.0171 42.246 38.5941 42.9468 38.1428 43.3672C38.5659 43.7877 38.9325 44.4604 39.412 44.5445C39.8069 44.6005 40.3427 43.9839 41.1889 43.4513Z" fill="#444444"/>
<path d="M40.0604 33.3604C40.4835 33.7248 40.9347 34.0892 41.3296 34.4536C37.6348 38.1255 34.1375 41.5732 30.4709 45.1891C30.1607 44.7687 29.794 44.2922 29.5684 43.9838C33.0093 40.5081 36.5066 36.9763 40.0604 33.3604Z" fill="#444444"/>
<path d="M80.0823 41.5733C79.631 42.162 79.2926 42.5824 78.8695 43.143C78.2208 42.5264 77.7413 42.1059 77.2901 41.6574C74.4696 38.8544 71.6774 36.0514 68.8287 33.2764C68.2364 32.7158 68.1236 32.2953 68.7723 31.6787C69.3364 31.1181 69.7595 31.1461 70.2954 31.6787C73.4543 34.8461 76.6414 37.9855 79.8285 41.1529C79.9413 41.237 79.9977 41.4332 80.0823 41.5733Z" fill="#444444"/>
<path d="M77.8266 43.8157C76.5574 45.5255 76.5292 45.5255 75.2318 44.2362C72.3831 41.4051 69.5345 38.546 66.6576 35.743C66.0935 35.2105 65.6987 34.762 66.4038 34.0052C67.1371 33.2203 67.5884 33.6408 68.1243 34.1733C71.3396 37.3968 74.5549 40.5642 77.8266 43.8157Z" fill="#444444"/>
<path d="M38.8756 32.3233C35.3219 35.8271 31.8245 39.2468 28.299 42.7225C26.7195 41.8255 26.6913 41.6574 28.0169 40.3399C30.7809 37.593 33.545 34.8741 36.2808 32.1271C37.6346 30.7817 37.6346 30.7817 38.8756 32.3233Z" fill="#444444"/>
<path d="M67.6446 41.6574C68.1805 42.4423 68.801 42.9188 68.7727 43.3673C68.7445 43.8157 68.0676 44.2362 67.6728 44.6566C67.2215 44.2362 66.4882 43.8718 66.4036 43.3673C66.3472 42.9748 67.0523 42.4423 67.6446 41.6574Z" fill="white"/>
<path d="M41.1885 43.4513C40.3424 43.9839 39.8347 44.6006 39.3835 44.5165C38.904 44.4604 38.5373 43.7597 38.1143 43.3392C38.5655 42.9187 38.9886 42.218 39.4963 42.1339C39.8911 42.1059 40.3988 42.8347 41.1885 43.4513Z" fill="white"/>
<path d="M7.98242 68.8126C6.8431 68.8126 5.96094 69.2423 5.33594 70.1017C4.71094 70.9545 4.39844 72.146 4.39844 73.6759C4.39844 76.8595 5.5931 78.4513 7.98242 78.4513C8.98503 78.4513 10.1992 78.2006 11.625 77.6993V80.2384C10.4531 80.7267 9.14453 80.9708 7.69922 80.9708C5.6224 80.9708 4.03385 80.3426 2.93359 79.0861C1.83333 77.823 1.2832 76.0131 1.2832 73.6564C1.2832 72.172 1.55339 70.8732 2.09375 69.7599C2.63411 68.6401 3.40885 67.784 4.41797 67.1915C5.43359 66.5926 6.62174 66.2931 7.98242 66.2931C9.36914 66.2931 10.7624 66.6284 12.1621 67.299L11.1855 69.7599C10.6517 69.506 10.1146 69.2846 9.57422 69.0958C9.03385 68.907 8.50326 68.8126 7.98242 68.8126ZM21.3711 80.7755L20.7949 79.2911H20.7168C20.2155 79.9226 19.6979 80.3621 19.1641 80.6095C18.6367 80.8504 17.9466 80.9708 17.0938 80.9708C16.0456 80.9708 15.2188 80.6713 14.6133 80.0724C14.0143 79.4734 13.7148 78.6206 13.7148 77.5138C13.7148 76.3549 14.1185 75.5021 14.9258 74.9552C15.7396 74.4018 16.9635 74.0958 18.5977 74.0372L20.4922 73.9786V73.5001C20.4922 72.3934 19.9258 71.84 18.793 71.84C17.9206 71.84 16.8952 72.1036 15.7168 72.631L14.7305 70.6193C15.987 69.9617 17.3802 69.6329 18.9102 69.6329C20.375 69.6329 21.498 69.9519 22.2793 70.59C23.0605 71.228 23.4512 72.198 23.4512 73.5001V80.7755H21.3711ZM20.4922 75.7169L19.3398 75.756C18.474 75.782 17.8294 75.9383 17.4062 76.2247C16.9831 76.5112 16.7715 76.9474 16.7715 77.5333C16.7715 78.3732 17.2533 78.7931 18.2168 78.7931C18.9069 78.7931 19.457 78.5945 19.8672 78.1974C20.2839 77.8003 20.4922 77.2729 20.4922 76.6154V75.7169ZM32.6211 69.6525C33.0247 69.6525 33.36 69.6818 33.627 69.7404L33.4023 72.5333C33.1615 72.4682 32.8685 72.4357 32.5234 72.4357C31.5729 72.4357 30.8307 72.6798 30.2969 73.1681C29.7695 73.6564 29.5059 74.34 29.5059 75.2189V80.7755H26.5273V69.8575H28.7832L29.2227 71.6935H29.3691C29.7077 71.0815 30.1634 70.59 30.7363 70.2189C31.3158 69.8413 31.944 69.6525 32.6211 69.6525ZM52.8848 73.5001C52.8848 75.8504 52.2142 77.6505 50.873 78.9005C49.5384 80.1505 47.6081 80.7755 45.082 80.7755H41.0391V66.4982H45.5215C47.8522 66.4982 49.6621 67.1134 50.9512 68.3439C52.2402 69.5743 52.8848 71.2931 52.8848 73.5001ZM49.7402 73.5782C49.7402 70.5118 48.3861 68.9786 45.6777 68.9786H44.0664V78.2755H45.3652C48.2819 78.2755 49.7402 76.7098 49.7402 73.5782ZM57.9824 75.297C57.9824 76.3777 58.1582 77.1948 58.5098 77.7482C58.8678 78.3016 59.4473 78.5782 60.248 78.5782C61.0423 78.5782 61.612 78.3048 61.957 77.7579C62.3086 77.2045 62.4844 76.3842 62.4844 75.297C62.4844 74.2163 62.3086 73.4057 61.957 72.8654C61.6055 72.325 61.0293 72.0548 60.2285 72.0548C59.4342 72.0548 58.8613 72.325 58.5098 72.8654C58.1582 73.3992 57.9824 74.2098 57.9824 75.297ZM65.5312 75.297C65.5312 77.0743 65.0625 78.4643 64.125 79.4669C63.1875 80.4695 61.8822 80.9708 60.209 80.9708C59.1608 80.9708 58.2363 80.743 57.4355 80.2872C56.6348 79.825 56.0195 79.1642 55.5898 78.3048C55.1602 77.4454 54.9453 76.4428 54.9453 75.297C54.9453 73.5131 55.4108 72.1264 56.3418 71.1368C57.2728 70.1473 58.5814 69.6525 60.2676 69.6525C61.3158 69.6525 62.2402 69.8803 63.041 70.3361C63.8418 70.7918 64.457 71.4461 64.8867 72.299C65.3164 73.1518 65.5312 74.1512 65.5312 75.297ZM72.4258 80.9708C69.0273 80.9708 67.3281 79.1056 67.3281 75.3751C67.3281 73.5197 67.7904 72.1036 68.7148 71.1271C69.6393 70.144 70.9642 69.6525 72.6895 69.6525C73.9525 69.6525 75.0853 69.8999 76.0879 70.3947L75.209 72.6993C74.7402 72.5105 74.304 72.3575 73.9004 72.2404C73.4967 72.1167 73.0931 72.0548 72.6895 72.0548C71.14 72.0548 70.3652 73.1551 70.3652 75.3556C70.3652 77.491 71.14 78.5587 72.6895 78.5587C73.2624 78.5587 73.793 78.4838 74.2812 78.3341C74.7695 78.1779 75.2578 77.937 75.7461 77.6115V80.1603C75.2643 80.4663 74.776 80.6779 74.2812 80.795C73.793 80.9122 73.1745 80.9708 72.4258 80.9708ZM82.8848 78.5978C83.4056 78.5978 84.0306 78.4838 84.7598 78.256V80.4728C84.0176 80.8048 83.1061 80.9708 82.0254 80.9708C80.834 80.9708 79.9648 80.6713 79.418 80.0724C78.8776 79.4669 78.6074 78.562 78.6074 77.3575V72.0939H77.1816V70.8341L78.8223 69.838L79.6816 67.5333H81.5859V69.8575H84.6426V72.0939H81.5859V77.3575C81.5859 77.7807 81.7031 78.0932 81.9375 78.295C82.1784 78.4969 82.4941 78.5978 82.8848 78.5978ZM89.3496 75.297C89.3496 76.3777 89.5254 77.1948 89.877 77.7482C90.235 78.3016 90.8145 78.5782 91.6152 78.5782C92.4095 78.5782 92.9792 78.3048 93.3242 77.7579C93.6758 77.2045 93.8516 76.3842 93.8516 75.297C93.8516 74.2163 93.6758 73.4057 93.3242 72.8654C92.9727 72.325 92.3965 72.0548 91.5957 72.0548C90.8014 72.0548 90.2285 72.325 89.877 72.8654C89.5254 73.3992 89.3496 74.2098 89.3496 75.297ZM96.8984 75.297C96.8984 77.0743 96.4297 78.4643 95.4922 79.4669C94.5547 80.4695 93.2493 80.9708 91.5762 80.9708C90.528 80.9708 89.6035 80.743 88.8027 80.2872C88.002 79.825 87.3867 79.1642 86.957 78.3048C86.5273 77.4454 86.3125 76.4428 86.3125 75.297C86.3125 73.5131 86.778 72.1264 87.709 71.1368C88.64 70.1473 89.9486 69.6525 91.6348 69.6525C92.6829 69.6525 93.6074 69.8803 94.4082 70.3361C95.209 70.7918 95.8242 71.4461 96.2539 72.299C96.6836 73.1518 96.8984 74.1512 96.8984 75.297ZM105.453 69.6525C105.857 69.6525 106.192 69.6818 106.459 69.7404L106.234 72.5333C105.993 72.4682 105.701 72.4357 105.355 72.4357C104.405 72.4357 103.663 72.6798 103.129 73.1681C102.602 73.6564 102.338 74.34 102.338 75.2189V80.7755H99.3594V69.8575H101.615L102.055 71.6935H102.201C102.54 71.0815 102.995 70.59 103.568 70.2189C104.148 69.8413 104.776 69.6525 105.453 69.6525Z" fill="#444444"/>
<path d="M620.162 43.4545C620.162 44.8651 619.898 46.0732 619.37 47.0788C618.846 48.0803 618.13 48.8473 617.222 49.38C616.319 49.9126 615.294 50.179 614.148 50.179C613.001 50.179 611.974 49.9126 611.067 49.38C610.163 48.843 609.447 48.0739 608.919 47.0724C608.395 46.0668 608.133 44.8608 608.133 43.4545C608.133 42.044 608.395 40.8381 608.919 39.8366C609.447 38.831 610.163 38.0618 611.067 37.5291C611.974 36.9964 613.001 36.7301 614.148 36.7301C615.294 36.7301 616.319 36.9964 617.222 37.5291C618.13 38.0618 618.846 38.831 619.37 39.8366C619.898 40.8381 620.162 42.044 620.162 43.4545ZM617.778 43.4545C617.778 42.4616 617.623 41.6243 617.312 40.9425C617.005 40.2564 616.579 39.7386 616.033 39.3892C615.488 39.0355 614.859 38.8587 614.148 38.8587C613.436 38.8587 612.807 39.0355 612.262 39.3892C611.716 39.7386 611.288 40.2564 610.977 40.9425C610.67 41.6243 610.517 42.4616 610.517 43.4545C610.517 44.4474 610.67 45.2869 610.977 45.973C611.288 46.6548 611.716 47.1726 612.262 47.5263C612.807 47.8757 613.436 48.0504 614.148 48.0504C614.859 48.0504 615.488 47.8757 616.033 47.5263C616.579 47.1726 617.005 46.6548 617.312 45.973C617.623 45.2869 617.778 44.4474 617.778 43.4545ZM622.302 50V40.1818H624.546V41.8182H624.648C624.827 41.2514 625.134 40.8146 625.569 40.5078C626.007 40.1967 626.508 40.0412 627.071 40.0412C627.199 40.0412 627.341 40.0476 627.499 40.0604C627.661 40.0689 627.795 40.0838 627.902 40.1051V42.2337C627.804 42.1996 627.648 42.1697 627.435 42.1442C627.226 42.1143 627.024 42.0994 626.828 42.0994C626.406 42.0994 626.027 42.1911 625.69 42.3743C625.358 42.5533 625.096 42.8026 624.904 43.1222C624.712 43.4418 624.616 43.8104 624.616 44.228V50H622.302ZM632.678 50.1726C631.907 50.1726 631.216 49.9744 630.607 49.5781C629.998 49.1818 629.516 48.6065 629.162 47.8523C628.809 47.098 628.632 46.1818 628.632 45.1037C628.632 44.0128 628.811 43.0923 629.169 42.3423C629.531 41.5881 630.019 41.0192 630.633 40.6357C631.246 40.2479 631.93 40.054 632.684 40.054C633.26 40.054 633.733 40.152 634.104 40.348C634.474 40.5398 634.768 40.772 634.986 41.0447C635.203 41.3132 635.371 41.5668 635.491 41.8054H635.586V36.9091H637.907V50H635.631V48.4531H635.491C635.371 48.6918 635.199 48.9453 634.973 49.2138C634.747 49.478 634.449 49.7038 634.078 49.8913C633.707 50.0788 633.241 50.1726 632.678 50.1726ZM633.324 48.2741C633.814 48.2741 634.231 48.142 634.577 47.8778C634.922 47.6094 635.184 47.2365 635.363 46.7592C635.542 46.282 635.631 45.7259 635.631 45.0909C635.631 44.456 635.542 43.9041 635.363 43.4354C635.188 42.9666 634.928 42.6023 634.583 42.3423C634.242 42.0824 633.822 41.9524 633.324 41.9524C632.808 41.9524 632.378 42.0866 632.032 42.3551C631.687 42.6236 631.427 42.9943 631.253 43.4673C631.078 43.9403 630.991 44.4815 630.991 45.0909C630.991 45.7045 631.078 46.2521 631.253 46.7337C631.432 47.2109 631.694 47.5881 632.039 47.8651C632.388 48.1378 632.817 48.2741 633.324 48.2741ZM644.719 50.1918C643.735 50.1918 642.885 49.9872 642.169 49.5781C641.457 49.1648 640.909 48.581 640.526 47.8267C640.142 47.0682 639.951 46.1754 639.951 45.1484C639.951 44.1385 640.142 43.2521 640.526 42.4893C640.914 41.7223 641.455 41.1257 642.15 40.6996C642.844 40.2692 643.66 40.054 644.598 40.054C645.203 40.054 645.774 40.152 646.311 40.348C646.852 40.5398 647.329 40.8381 647.743 41.2429C648.16 41.6477 648.488 42.1634 648.727 42.7898C648.966 43.4119 649.085 44.1534 649.085 45.0142V45.7237H641.037V44.1641H646.867C646.863 43.7209 646.767 43.3267 646.579 42.9815C646.392 42.6321 646.13 42.3572 645.793 42.157C645.461 41.9567 645.073 41.8565 644.63 41.8565C644.157 41.8565 643.741 41.9716 643.383 42.2017C643.025 42.4276 642.746 42.7259 642.546 43.0966C642.35 43.4631 642.25 43.8658 642.245 44.3047V45.6662C642.245 46.2372 642.35 46.7273 642.559 47.1364C642.767 47.5412 643.059 47.8523 643.434 48.0696C643.809 48.2827 644.248 48.3892 644.751 48.3892C645.088 48.3892 645.392 48.3423 645.665 48.2486C645.938 48.1506 646.174 48.0078 646.375 47.8203C646.575 47.6328 646.726 47.4006 646.828 47.1236L648.989 47.3665C648.853 47.9375 648.593 48.4361 648.209 48.8622C647.83 49.2841 647.344 49.6122 646.752 49.8466C646.159 50.0767 645.482 50.1918 644.719 50.1918ZM651.042 50V40.1818H653.286V41.8182H653.388C653.567 41.2514 653.874 40.8146 654.309 40.5078C654.748 40.1967 655.248 40.0412 655.811 40.0412C655.939 40.0412 656.081 40.0476 656.239 40.0604C656.401 40.0689 656.535 40.0838 656.642 40.1051V42.2337C656.544 42.1996 656.388 42.1697 656.175 42.1442C655.966 42.1143 655.764 42.0994 655.568 42.0994C655.146 42.0994 654.767 42.1911 654.43 42.3743C654.098 42.5533 653.836 42.8026 653.644 43.1222C653.452 43.4418 653.356 43.8104 653.356 44.228V50H651.042ZM723.557 43.4545C723.557 44.8651 723.293 46.0732 722.764 47.0788C722.24 48.0803 721.524 48.8473 720.617 49.38C719.713 49.9126 718.688 50.179 717.542 50.179C716.396 50.179 715.369 49.9126 714.461 49.38C713.558 48.843 712.842 48.0739 712.313 47.0724C711.789 46.0668 711.527 44.8608 711.527 43.4545C711.527 42.044 711.789 40.8381 712.313 39.8366C712.842 38.831 713.558 38.0618 714.461 37.5291C715.369 36.9964 716.396 36.7301 717.542 36.7301C718.688 36.7301 719.713 36.9964 720.617 37.5291C721.524 38.0618 722.24 38.831 722.764 39.8366C723.293 40.8381 723.557 42.044 723.557 43.4545ZM721.173 43.4545C721.173 42.4616 721.017 41.6243 720.706 40.9425C720.399 40.2564 719.973 39.7386 719.428 39.3892C718.882 39.0355 718.254 38.8587 717.542 38.8587C716.83 38.8587 716.202 39.0355 715.656 39.3892C715.111 39.7386 714.683 40.2564 714.372 40.9425C714.065 41.6243 713.911 42.4616 713.911 43.4545C713.911 44.4474 714.065 45.2869 714.372 45.973C714.683 46.6548 715.111 47.1726 715.656 47.5263C716.202 47.8757 716.83 48.0504 717.542 48.0504C718.254 48.0504 718.882 47.8757 719.428 47.5263C719.973 47.1726 720.399 46.6548 720.706 45.973C721.017 45.2869 721.173 44.4474 721.173 43.4545ZM725.697 50V40.1818H727.94V41.8182H728.043C728.222 41.2514 728.528 40.8146 728.963 40.5078C729.402 40.1967 729.903 40.0412 730.465 40.0412C730.593 40.0412 730.736 40.0476 730.893 40.0604C731.055 40.0689 731.19 40.0838 731.296 40.1051V42.2337C731.198 42.1996 731.043 42.1697 730.83 42.1442C730.621 42.1143 730.418 42.0994 730.222 42.0994C729.8 42.0994 729.421 42.1911 729.085 42.3743C728.752 42.5533 728.49 42.8026 728.298 43.1222C728.107 43.4418 728.011 43.8104 728.011 44.228V50H725.697ZM736.073 50.1726C735.301 50.1726 734.611 49.9744 734.002 49.5781C733.392 49.1818 732.911 48.6065 732.557 47.8523C732.203 47.098 732.026 46.1818 732.026 45.1037C732.026 44.0128 732.205 43.0923 732.563 42.3423C732.926 41.5881 733.414 41.0192 734.027 40.6357C734.641 40.2479 735.325 40.054 736.079 40.054C736.654 40.054 737.127 40.152 737.498 40.348C737.869 40.5398 738.163 40.772 738.38 41.0447C738.597 41.3132 738.766 41.5668 738.885 41.8054H738.981V36.9091H741.301V50H739.026V48.4531H738.885C738.766 48.6918 738.593 48.9453 738.367 49.2138C738.142 49.478 737.843 49.7038 737.472 49.8913C737.102 50.0788 736.635 50.1726 736.073 50.1726ZM736.718 48.2741C737.208 48.2741 737.626 48.142 737.971 47.8778C738.316 47.6094 738.578 47.2365 738.757 46.7592C738.936 46.282 739.026 45.7259 739.026 45.0909C739.026 44.456 738.936 43.9041 738.757 43.4354C738.583 42.9666 738.323 42.6023 737.977 42.3423C737.637 42.0824 737.217 41.9524 736.718 41.9524C736.203 41.9524 735.772 42.0866 735.427 42.3551C735.082 42.6236 734.822 42.9943 734.647 43.4673C734.472 43.9403 734.385 44.4815 734.385 45.0909C734.385 45.7045 734.472 46.2521 734.647 46.7337C734.826 47.2109 735.088 47.5881 735.433 47.8651C735.783 48.1378 736.211 48.2741 736.718 48.2741ZM748.114 50.1918C747.129 50.1918 746.279 49.9872 745.563 49.5781C744.852 49.1648 744.304 48.581 743.92 47.8267C743.537 47.0682 743.345 46.1754 743.345 45.1484C743.345 44.1385 743.537 43.2521 743.92 42.4893C744.308 41.7223 744.849 41.1257 745.544 40.6996C746.239 40.2692 747.055 40.054 747.992 40.054C748.597 40.054 749.168 40.152 749.705 40.348C750.246 40.5398 750.724 40.8381 751.137 41.2429C751.555 41.6477 751.883 42.1634 752.121 42.7898C752.36 43.4119 752.479 44.1534 752.479 45.0142V45.7237H744.432V44.1641H750.261C750.257 43.7209 750.161 43.3267 749.974 42.9815C749.786 42.6321 749.524 42.3572 749.188 42.157C748.855 41.9567 748.467 41.8565 748.024 41.8565C747.551 41.8565 747.136 41.9716 746.778 42.2017C746.42 42.4276 746.141 42.7259 745.94 43.0966C745.744 43.4631 745.644 43.8658 745.64 44.3047V45.6662C745.64 46.2372 745.744 46.7273 745.953 47.1364C746.162 47.5412 746.454 47.8523 746.829 48.0696C747.204 48.2827 747.643 48.3892 748.146 48.3892C748.482 48.3892 748.787 48.3423 749.06 48.2486C749.332 48.1506 749.569 48.0078 749.769 47.8203C749.969 47.6328 750.121 47.4006 750.223 47.1236L752.384 47.3665C752.247 47.9375 751.987 48.4361 751.604 48.8622C751.224 49.2841 750.739 49.6122 750.146 49.8466C749.554 50.0767 748.876 50.1918 748.114 50.1918ZM754.437 50V40.1818H756.681V41.8182H756.783C756.962 41.2514 757.269 40.8146 757.703 40.5078C758.142 40.1967 758.643 40.0412 759.205 40.0412C759.333 40.0412 759.476 40.0476 759.634 40.0604C759.796 40.0689 759.93 40.0838 760.036 40.1051V42.2337C759.938 42.1996 759.783 42.1697 759.57 42.1442C759.361 42.1143 759.159 42.0994 758.963 42.0994C758.541 42.0994 758.161 42.1911 757.825 42.3743C757.492 42.5533 757.23 42.8026 757.039 43.1222C756.847 43.4418 756.751 43.8104 756.751 44.228V50H754.437ZM766.141 50V36.9091H771.05C772.056 36.9091 772.899 37.0838 773.581 37.4332C774.267 37.7827 774.785 38.2727 775.134 38.9034C775.488 39.5298 775.665 40.2607 775.665 41.0959C775.665 41.9354 775.486 42.6641 775.128 43.282C774.774 43.8956 774.252 44.3707 773.562 44.7074C772.872 45.0398 772.024 45.206 771.018 45.206H767.521V43.2372H770.698C771.286 43.2372 771.768 43.1562 772.143 42.9943C772.518 42.8281 772.795 42.5874 772.974 42.272C773.157 41.9524 773.249 41.5604 773.249 41.0959C773.249 40.6314 773.157 40.2351 772.974 39.907C772.791 39.5746 772.512 39.3232 772.137 39.1527C771.762 38.978 771.278 38.8906 770.686 38.8906H768.512V50H766.141ZM772.904 44.0682L776.144 50H773.498L770.315 44.0682H772.904ZM781.952 50.1918C780.967 50.1918 780.117 49.9872 779.401 49.5781C778.689 49.1648 778.142 48.581 777.758 47.8267C777.375 47.0682 777.183 46.1754 777.183 45.1484C777.183 44.1385 777.375 43.2521 777.758 42.4893C778.146 41.7223 778.687 41.1257 779.382 40.6996C780.077 40.2692 780.893 40.054 781.83 40.054C782.435 40.054 783.006 40.152 783.543 40.348C784.084 40.5398 784.562 40.8381 784.975 41.2429C785.393 41.6477 785.721 42.1634 785.959 42.7898C786.198 43.4119 786.317 44.1534 786.317 45.0142V45.7237H778.27V44.1641H784.099C784.095 43.7209 783.999 43.3267 783.812 42.9815C783.624 42.6321 783.362 42.3572 783.025 42.157C782.693 41.9567 782.305 41.8565 781.862 41.8565C781.389 41.8565 780.974 41.9716 780.616 42.2017C780.258 42.4276 779.979 42.7259 779.778 43.0966C779.582 43.4631 779.482 43.8658 779.478 44.3047V45.6662C779.478 46.2372 779.582 46.7273 779.791 47.1364C780 47.5412 780.292 47.8523 780.667 48.0696C781.042 48.2827 781.481 48.3892 781.983 48.3892C782.32 48.3892 782.625 48.3423 782.898 48.2486C783.17 48.1506 783.407 48.0078 783.607 47.8203C783.807 47.6328 783.959 47.4006 784.061 47.1236L786.221 47.3665C786.085 47.9375 785.825 48.4361 785.442 48.8622C785.062 49.2841 784.577 49.6122 783.984 49.8466C783.392 50.0767 782.714 50.1918 781.952 50.1918ZM796.763 40.1818L793.267 50H790.71L787.214 40.1818H789.681L791.938 47.4751H792.04L794.303 40.1818H796.763ZM798.365 50V40.1818H800.679V50H798.365ZM799.528 38.7884C799.162 38.7884 798.846 38.6669 798.582 38.424C798.318 38.1768 798.186 37.8807 798.186 37.5355C798.186 37.1861 798.318 36.8899 798.582 36.647C798.846 36.3999 799.162 36.2763 799.528 36.2763C799.899 36.2763 800.214 36.3999 800.474 36.647C800.738 36.8899 800.87 37.1861 800.87 37.5355C800.87 37.8807 800.738 38.1768 800.474 38.424C800.214 38.6669 799.899 38.7884 799.528 38.7884ZM807.405 50.1918C806.42 50.1918 805.57 49.9872 804.854 49.5781C804.143 49.1648 803.595 48.581 803.211 47.8267C802.828 47.0682 802.636 46.1754 802.636 45.1484C802.636 44.1385 802.828 43.2521 803.211 42.4893C803.599 41.7223 804.14 41.1257 804.835 40.6996C805.53 40.2692 806.346 40.054 807.283 40.054C807.888 40.054 808.459 40.152 808.996 40.348C809.537 40.5398 810.015 40.8381 810.428 41.2429C810.846 41.6477 811.174 42.1634 811.412 42.7898C811.651 43.4119 811.77 44.1534 811.77 45.0142V45.7237H803.723V44.1641H809.552C809.548 43.7209 809.452 43.3267 809.265 42.9815C809.077 42.6321 808.815 42.3572 808.479 42.157C808.146 41.9567 807.758 41.8565 807.315 41.8565C806.842 41.8565 806.427 41.9716 806.069 42.2017C805.711 42.4276 805.432 42.7259 805.231 43.0966C805.035 43.4631 804.935 43.8658 804.931 44.3047V45.6662C804.931 46.2372 805.035 46.7273 805.244 47.1364C805.453 47.5412 805.745 47.8523 806.12 48.0696C806.495 48.2827 806.934 48.3892 807.437 48.3892C807.773 48.3892 808.078 48.3423 808.351 48.2486C808.623 48.1506 808.86 48.0078 809.06 47.8203C809.26 47.6328 809.412 47.4006 809.514 47.1236L811.675 47.3665C811.538 47.9375 811.278 48.4361 810.895 48.8622C810.515 49.2841 810.03 49.6122 809.437 49.8466C808.845 50.0767 808.167 50.1918 807.405 50.1918ZM815.702 50L812.927 40.1818H815.286L817.012 47.0852H817.101L818.866 40.1818H821.199L822.963 47.0469H823.059L824.759 40.1818H827.124L824.344 50H821.934L820.093 43.3651H819.959L818.118 50H815.702ZM882.42 36.9091H885.322L889.208 46.3949H889.362L893.248 36.9091H896.15V50H893.875V41.0064H893.753L890.135 49.9616H888.435L884.817 40.9872H884.696V50H882.42V36.9091ZM901.456 50.1982C900.833 50.1982 900.273 50.0874 899.775 49.8658C899.28 49.6399 898.888 49.3075 898.598 48.8686C898.313 48.4297 898.17 47.8885 898.17 47.245C898.17 46.6911 898.272 46.233 898.477 45.8707C898.681 45.5085 898.961 45.2188 899.314 45.0014C899.668 44.7841 900.066 44.62 900.51 44.5092C900.957 44.3942 901.419 44.3111 901.897 44.2599C902.472 44.2003 902.939 44.147 903.297 44.1001C903.654 44.049 903.914 43.9723 904.076 43.87C904.243 43.7635 904.326 43.5994 904.326 43.3778V43.3395C904.326 42.858 904.183 42.4851 903.897 42.2209C903.612 41.9567 903.201 41.8246 902.664 41.8246C902.097 41.8246 901.647 41.9482 901.315 42.1953C900.987 42.4425 900.765 42.7344 900.65 43.071L898.49 42.7642C898.66 42.1676 898.941 41.669 899.333 41.2685C899.725 40.8636 900.205 40.5611 900.772 40.3608C901.338 40.1562 901.965 40.054 902.651 40.054C903.124 40.054 903.595 40.1094 904.064 40.2202C904.532 40.331 904.961 40.5142 905.348 40.7699C905.736 41.0213 906.047 41.3643 906.282 41.799C906.52 42.2337 906.64 42.777 906.64 43.429V50H904.415V48.6513H904.338C904.198 48.924 904 49.1797 903.744 49.4183C903.493 49.6527 903.175 49.8423 902.792 49.9872C902.412 50.1278 901.967 50.1982 901.456 50.1982ZM902.056 48.4979C902.521 48.4979 902.924 48.4062 903.265 48.223C903.605 48.0355 903.868 47.7884 904.051 47.4815C904.238 47.1747 904.332 46.8402 904.332 46.478V45.321C904.26 45.3807 904.136 45.4361 903.961 45.4872C903.791 45.5384 903.599 45.5831 903.386 45.6214C903.173 45.6598 902.962 45.6939 902.753 45.7237C902.544 45.7536 902.363 45.7791 902.21 45.8004C901.865 45.8473 901.556 45.924 901.283 46.0305C901.01 46.1371 900.795 46.2862 900.637 46.478C900.48 46.6655 900.401 46.9084 900.401 47.2067C900.401 47.6328 900.556 47.9545 900.868 48.1719C901.179 48.3892 901.575 48.4979 902.056 48.4979ZM911.28 44.2472V50H908.966V40.1818H911.178V41.8501H911.293C911.519 41.3004 911.879 40.8636 912.373 40.5398C912.872 40.2159 913.488 40.054 914.221 40.054C914.898 40.054 915.488 40.1989 915.991 40.4886C916.498 40.7784 916.89 41.1982 917.167 41.7479C917.449 42.2976 917.587 42.9645 917.583 43.7486V50H915.269V44.1065C915.269 43.4503 915.098 42.9368 914.757 42.5661C914.421 42.1953 913.954 42.0099 913.358 42.0099C912.953 42.0099 912.593 42.0994 912.277 42.2784C911.966 42.4531 911.721 42.7067 911.542 43.0391C911.368 43.3714 911.28 43.7741 911.28 44.2472ZM922.76 50.1982C922.138 50.1982 921.578 50.0874 921.079 49.8658C920.585 49.6399 920.193 49.3075 919.903 48.8686C919.618 48.4297 919.475 47.8885 919.475 47.245C919.475 46.6911 919.577 46.233 919.782 45.8707C919.986 45.5085 920.265 45.2188 920.619 45.0014C920.973 44.7841 921.371 44.62 921.814 44.5092C922.262 44.3942 922.724 44.3111 923.201 44.2599C923.777 44.2003 924.243 44.147 924.601 44.1001C924.959 44.049 925.219 43.9723 925.381 43.87C925.547 43.7635 925.63 43.5994 925.63 43.3778V43.3395C925.63 42.858 925.488 42.4851 925.202 42.2209C924.917 41.9567 924.505 41.8246 923.968 41.8246C923.402 41.8246 922.952 41.9482 922.62 42.1953C922.292 42.4425 922.07 42.7344 921.955 43.071L919.794 42.7642C919.965 42.1676 920.246 41.669 920.638 41.2685C921.03 40.8636 921.51 40.5611 922.076 40.3608C922.643 40.1562 923.27 40.054 923.956 40.054C924.429 40.054 924.9 40.1094 925.368 40.2202C925.837 40.331 926.265 40.5142 926.653 40.7699C927.041 41.0213 927.352 41.3643 927.586 41.799C927.825 42.2337 927.944 42.777 927.944 43.429V50H925.72V48.6513H925.643C925.502 48.924 925.304 49.1797 925.049 49.4183C924.797 49.6527 924.48 49.8423 924.096 49.9872C923.717 50.1278 923.272 50.1982 922.76 50.1982ZM923.361 48.4979C923.826 48.4979 924.228 48.4062 924.569 48.223C924.91 48.0355 925.172 47.7884 925.355 47.4815C925.543 47.1747 925.637 46.8402 925.637 46.478V45.321C925.564 45.3807 925.441 45.4361 925.266 45.4872C925.096 45.5384 924.904 45.5831 924.691 45.6214C924.478 45.6598 924.267 45.6939 924.058 45.7237C923.849 45.7536 923.668 45.7791 923.515 45.8004C923.169 45.8473 922.86 45.924 922.588 46.0305C922.315 46.1371 922.1 46.2862 921.942 46.478C921.784 46.6655 921.706 46.9084 921.706 47.2067C921.706 47.6328 921.861 47.9545 922.172 48.1719C922.483 48.3892 922.88 48.4979 923.361 48.4979ZM934.541 53.8864C933.71 53.8864 932.996 53.7734 932.4 53.5476C931.803 53.326 931.324 53.0277 930.961 52.6527C930.599 52.2777 930.348 51.8622 930.207 51.4062L932.291 50.9013C932.385 51.093 932.521 51.2827 932.7 51.4702C932.879 51.6619 933.12 51.8196 933.422 51.9432C933.729 52.071 934.115 52.1349 934.579 52.1349C935.235 52.1349 935.779 51.9751 936.209 51.6555C936.64 51.3402 936.855 50.8203 936.855 50.0959V48.2358H936.74C936.62 48.4744 936.446 48.7195 936.216 48.9709C935.99 49.2223 935.689 49.4332 935.314 49.6037C934.944 49.7741 934.477 49.8594 933.914 49.8594C933.16 49.8594 932.476 49.6825 931.863 49.3288C931.253 48.9709 930.767 48.4382 930.405 47.7308C930.047 47.0192 929.868 46.1286 929.868 45.0589C929.868 43.9808 930.047 43.071 930.405 42.3295C930.767 41.5838 931.255 41.0192 931.869 40.6357C932.483 40.2479 933.167 40.054 933.921 40.054C934.496 40.054 934.969 40.152 935.34 40.348C935.715 40.5398 936.013 40.772 936.235 41.0447C936.456 41.3132 936.625 41.5668 936.74 41.8054H936.868V40.1818H939.15V50.1598C939.15 50.9993 938.949 51.6939 938.549 52.2436C938.148 52.7933 937.6 53.2045 936.906 53.4773C936.211 53.75 935.423 53.8864 934.541 53.8864ZM934.56 48.044C935.05 48.044 935.468 47.9247 935.813 47.6861C936.158 47.4474 936.42 47.1044 936.599 46.657C936.778 46.2095 936.868 45.6726 936.868 45.0462C936.868 44.4283 936.778 43.8871 936.599 43.4226C936.424 42.9581 936.164 42.598 935.819 42.3423C935.478 42.0824 935.059 41.9524 934.56 41.9524C934.044 41.9524 933.614 42.0866 933.269 42.3551C932.924 42.6236 932.664 42.9922 932.489 43.4609C932.314 43.9254 932.227 44.4538 932.227 45.0462C932.227 45.647 932.314 46.1733 932.489 46.625C932.668 47.0724 932.93 47.4219 933.275 47.6733C933.625 47.9205 934.053 48.044 934.56 48.044ZM945.868 50.1918C944.883 50.1918 944.033 49.9872 943.317 49.5781C942.605 49.1648 942.058 48.581 941.674 47.8267C941.291 47.0682 941.099 46.1754 941.099 45.1484C941.099 44.1385 941.291 43.2521 941.674 42.4893C942.062 41.7223 942.603 41.1257 943.298 40.6996C943.993 40.2692 944.809 40.054 945.746 40.054C946.351 40.054 946.922 40.152 947.459 40.348C948 40.5398 948.478 40.8381 948.891 41.2429C949.309 41.6477 949.637 42.1634 949.875 42.7898C950.114 43.4119 950.233 44.1534 950.233 45.0142V45.7237H942.186V44.1641H948.015C948.011 43.7209 947.915 43.3267 947.728 42.9815C947.54 42.6321 947.278 42.3572 946.941 42.157C946.609 41.9567 946.221 41.8565 945.778 41.8565C945.305 41.8565 944.89 41.9716 944.532 42.2017C944.174 42.4276 943.895 42.7259 943.694 43.0966C943.498 43.4631 943.398 43.8658 943.394 44.3047V45.6662C943.394 46.2372 943.498 46.7273 943.707 47.1364C943.916 47.5412 944.208 47.8523 944.583 48.0696C944.958 48.2827 945.397 48.3892 945.9 48.3892C946.236 48.3892 946.541 48.3423 946.814 48.2486C947.086 48.1506 947.323 48.0078 947.523 47.8203C947.723 47.6328 947.875 47.4006 947.977 47.1236L950.137 47.3665C950.001 47.9375 949.741 48.4361 949.358 48.8622C948.978 49.2841 948.493 49.6122 947.9 49.8466C947.308 50.0767 946.63 50.1918 945.868 50.1918ZM959.129 36.9091V50H956.758V36.9091H959.129ZM963.909 44.2472V50H961.595V40.1818H963.807V41.8501H963.922C964.148 41.3004 964.508 40.8636 965.002 40.5398C965.501 40.2159 966.116 40.054 966.849 40.054C967.527 40.054 968.117 40.1989 968.62 40.4886C969.127 40.7784 969.519 41.1982 969.796 41.7479C970.077 42.2976 970.216 42.9645 970.212 43.7486V50H967.898V44.1065C967.898 43.4503 967.727 42.9368 967.386 42.5661C967.05 42.1953 966.583 42.0099 965.987 42.0099C965.582 42.0099 965.222 42.0994 964.906 42.2784C964.595 42.4531 964.35 42.7067 964.171 43.0391C963.996 43.3714 963.909 43.7741 963.909 44.2472ZM980.982 40.1818L977.486 50H974.929L971.433 40.1818H973.9L976.156 47.4751H976.259L978.521 40.1818H980.982ZM986.596 50.1918C985.612 50.1918 984.762 49.9872 984.046 49.5781C983.334 49.1648 982.786 48.581 982.403 47.8267C982.019 47.0682 981.828 46.1754 981.828 45.1484C981.828 44.1385 982.019 43.2521 982.403 42.4893C982.791 41.7223 983.332 41.1257 984.026 40.6996C984.721 40.2692 985.537 40.054 986.475 40.054C987.08 40.054 987.651 40.152 988.188 40.348C988.729 40.5398 989.206 40.8381 989.619 41.2429C990.037 41.6477 990.365 42.1634 990.604 42.7898C990.843 43.4119 990.962 44.1534 990.962 45.0142V45.7237H982.914V44.1641H988.744C988.74 43.7209 988.644 43.3267 988.456 42.9815C988.269 42.6321 988.007 42.3572 987.67 42.157C987.338 41.9567 986.95 41.8565 986.507 41.8565C986.034 41.8565 985.618 41.9716 985.26 42.2017C984.902 42.4276 984.623 42.7259 984.423 43.0966C984.227 43.4631 984.127 43.8658 984.122 44.3047V45.6662C984.122 46.2372 984.227 46.7273 984.436 47.1364C984.644 47.5412 984.936 47.8523 985.311 48.0696C985.686 48.2827 986.125 48.3892 986.628 48.3892C986.965 48.3892 987.269 48.3423 987.542 48.2486C987.815 48.1506 988.051 48.0078 988.252 47.8203C988.452 47.6328 988.603 47.4006 988.705 47.1236L990.866 47.3665C990.73 47.9375 990.47 48.4361 990.086 48.8622C989.707 49.2841 989.221 49.6122 988.629 49.8466C988.036 50.0767 987.359 50.1918 986.596 50.1918ZM995.233 44.2472V50H992.919V40.1818H995.131V41.8501H995.246C995.472 41.3004 995.832 40.8636 996.326 40.5398C996.825 40.2159 997.441 40.054 998.174 40.054C998.851 40.054 999.441 40.1989 999.944 40.4886C1000.45 40.7784 1000.84 41.1982 1001.12 41.7479C1001.4 42.2976 1001.54 42.9645 1001.54 43.7486V50H999.222V44.1065C999.222 43.4503 999.051 42.9368 998.711 42.5661C998.374 42.1953 997.907 42.0099 997.311 42.0099C996.906 42.0099 996.546 42.0994 996.23 42.2784C995.919 42.4531 995.674 42.7067 995.495 43.0391C995.321 43.3714 995.233 43.7741 995.233 44.2472ZM1008.79 40.1818V41.9716H1003.15V40.1818H1008.79ZM1004.54 37.8295H1006.85V47.0469C1006.85 47.358 1006.9 47.5966 1006.99 47.7628C1007.09 47.9247 1007.22 48.0355 1007.38 48.0952C1007.54 48.1548 1007.71 48.1847 1007.9 48.1847C1008.05 48.1847 1008.18 48.174 1008.3 48.1527C1008.42 48.1314 1008.52 48.1122 1008.58 48.0952L1008.97 49.9041C1008.85 49.9467 1008.67 49.9936 1008.44 50.0447C1008.21 50.0959 1007.94 50.1257 1007.61 50.1342C1007.03 50.1513 1006.51 50.0639 1006.04 49.8722C1005.58 49.6761 1005.21 49.3736 1004.94 48.9645C1004.67 48.5554 1004.54 48.044 1004.54 47.4304V37.8295ZM1014.9 50.1918C1013.94 50.1918 1013.11 49.9808 1012.41 49.5589C1011.71 49.1371 1011.16 48.5469 1010.77 47.7884C1010.39 47.0298 1010.2 46.1435 1010.2 45.1293C1010.2 44.1151 1010.39 43.2266 1010.77 42.4638C1011.16 41.701 1011.71 41.1087 1012.41 40.6868C1013.11 40.2649 1013.94 40.054 1014.9 40.054C1015.86 40.054 1016.69 40.2649 1017.4 40.6868C1018.1 41.1087 1018.64 41.701 1019.03 42.4638C1019.41 43.2266 1019.61 44.1151 1019.61 45.1293C1019.61 46.1435 1019.41 47.0298 1019.03 47.7884C1018.64 48.5469 1018.1 49.1371 1017.4 49.5589C1016.69 49.9808 1015.86 50.1918 1014.9 50.1918ZM1014.92 48.3381C1015.44 48.3381 1015.87 48.1953 1016.22 47.9098C1016.57 47.62 1016.83 47.2322 1017 46.7464C1017.17 46.2607 1017.26 45.7195 1017.26 45.1229C1017.26 44.522 1017.17 43.9787 1017 43.4929C1016.83 43.0028 1016.57 42.6129 1016.22 42.3232C1015.87 42.0334 1015.44 41.8885 1014.92 41.8885C1014.38 41.8885 1013.94 42.0334 1013.59 42.3232C1013.24 42.6129 1012.97 43.0028 1012.8 43.4929C1012.63 43.9787 1012.54 44.522 1012.54 45.1229C1012.54 45.7195 1012.63 46.2607 1012.8 46.7464C1012.97 47.2322 1013.24 47.62 1013.59 47.9098C1013.94 48.1953 1014.38 48.3381 1014.92 48.3381ZM1021.57 50V40.1818H1023.82V41.8182H1023.92C1024.1 41.2514 1024.4 40.8146 1024.84 40.5078C1025.28 40.1967 1025.78 40.0412 1026.34 40.0412C1026.47 40.0412 1026.61 40.0476 1026.77 40.0604C1026.93 40.0689 1027.06 40.0838 1027.17 40.1051V42.2337C1027.07 42.1996 1026.92 42.1697 1026.7 42.1442C1026.5 42.1143 1026.29 42.0994 1026.1 42.0994C1025.68 42.0994 1025.3 42.1911 1024.96 42.3743C1024.63 42.5533 1024.37 42.8026 1024.17 43.1222C1023.98 43.4418 1023.89 43.8104 1023.89 44.228V50H1021.57ZM1030.45 53.6818C1030.13 53.6818 1029.84 53.6563 1029.57 53.6051C1029.31 53.5582 1029.09 53.5028 1028.94 53.4389L1029.47 51.6364C1029.81 51.7344 1030.11 51.7813 1030.38 51.777C1030.64 51.7727 1030.87 51.6896 1031.07 51.5277C1031.28 51.37 1031.45 51.1058 1031.59 50.7351L1031.79 50.2045L1028.23 40.1818H1030.68L1032.94 47.5966H1033.05L1035.32 40.1818H1037.78L1033.85 51.1889C1033.66 51.7088 1033.42 52.1541 1033.12 52.5249C1032.81 52.8999 1032.44 53.1854 1032.01 53.3814C1031.57 53.5817 1031.05 53.6818 1030.45 53.6818ZM1093.06 50V36.9091H1095.43V48.0121H1101.2V50H1093.06ZM1107.43 50.1918C1106.48 50.1918 1105.64 49.9808 1104.94 49.5589C1104.24 49.1371 1103.69 48.5469 1103.31 47.7884C1102.92 47.0298 1102.73 46.1435 1102.73 45.1293C1102.73 44.1151 1102.92 43.2266 1103.31 42.4638C1103.69 41.701 1104.24 41.1087 1104.94 40.6868C1105.64 40.2649 1106.48 40.054 1107.43 40.054C1108.39 40.054 1109.22 40.2649 1109.93 40.6868C1110.63 41.1087 1111.17 41.701 1111.56 42.4638C1111.95 43.2266 1112.14 44.1151 1112.14 45.1293C1112.14 46.1435 1111.95 47.0298 1111.56 47.7884C1111.17 48.5469 1110.63 49.1371 1109.93 49.5589C1109.22 49.9808 1108.39 50.1918 1107.43 50.1918ZM1107.45 48.3381C1107.97 48.3381 1108.4 48.1953 1108.75 47.9098C1109.1 47.62 1109.36 47.2322 1109.53 46.7464C1109.71 46.2607 1109.79 45.7195 1109.79 45.1229C1109.79 44.522 1109.71 43.9787 1109.53 43.4929C1109.36 43.0028 1109.1 42.6129 1108.75 42.3232C1108.4 42.0334 1107.97 41.8885 1107.45 41.8885C1106.91 41.8885 1106.47 42.0334 1106.12 42.3232C1105.77 42.6129 1105.51 43.0028 1105.33 43.4929C1105.16 43.9787 1105.08 44.522 1105.08 45.1229C1105.08 45.7195 1105.16 46.2607 1105.33 46.7464C1105.51 47.2322 1105.77 47.62 1106.12 47.9098C1106.47 48.1953 1106.91 48.3381 1107.45 48.3381ZM1118.37 53.8864C1117.54 53.8864 1116.83 53.7734 1116.23 53.5476C1115.63 53.326 1115.16 53.0277 1114.79 52.6527C1114.43 52.2777 1114.18 51.8622 1114.04 51.4062L1116.12 50.9013C1116.22 51.093 1116.35 51.2827 1116.53 51.4702C1116.71 51.6619 1116.95 51.8196 1117.25 51.9432C1117.56 52.071 1117.95 52.1349 1118.41 52.1349C1119.07 52.1349 1119.61 51.9751 1120.04 51.6555C1120.47 51.3402 1120.69 50.8203 1120.69 50.0959V48.2358H1120.57C1120.45 48.4744 1120.28 48.7195 1120.05 48.9709C1119.82 49.2223 1119.52 49.4332 1119.15 49.6037C1118.78 49.7741 1118.31 49.8594 1117.75 49.8594C1116.99 49.8594 1116.31 49.6825 1115.69 49.3288C1115.09 48.9709 1114.6 48.4382 1114.24 47.7308C1113.88 47.0192 1113.7 46.1286 1113.7 45.0589C1113.7 43.9808 1113.88 43.071 1114.24 42.3295C1114.6 41.5838 1115.09 41.0192 1115.7 40.6357C1116.31 40.2479 1117 40.054 1117.75 40.054C1118.33 40.054 1118.8 40.152 1119.17 40.348C1119.55 40.5398 1119.85 40.772 1120.07 41.0447C1120.29 41.3132 1120.46 41.5668 1120.57 41.8054H1120.7V40.1818H1122.98V50.1598C1122.98 50.9993 1122.78 51.6939 1122.38 52.2436C1121.98 52.7933 1121.43 53.2045 1120.74 53.4773C1120.04 53.75 1119.25 53.8864 1118.37 53.8864ZM1118.39 48.044C1118.88 48.044 1119.3 47.9247 1119.64 47.6861C1119.99 47.4474 1120.25 47.1044 1120.43 46.657C1120.61 46.2095 1120.7 45.6726 1120.7 45.0462C1120.7 44.4283 1120.61 43.8871 1120.43 43.4226C1120.26 42.9581 1120 42.598 1119.65 42.3423C1119.31 42.0824 1118.89 41.9524 1118.39 41.9524C1117.88 41.9524 1117.45 42.0866 1117.1 42.3551C1116.76 42.6236 1116.5 42.9922 1116.32 43.4609C1116.15 43.9254 1116.06 44.4538 1116.06 45.0462C1116.06 45.647 1116.15 46.1733 1116.32 46.625C1116.5 47.0724 1116.76 47.4219 1117.11 47.6733C1117.46 47.9205 1117.88 48.044 1118.39 48.044ZM1125.35 50V40.1818H1127.67V50H1125.35ZM1126.52 38.7884C1126.15 38.7884 1125.83 38.6669 1125.57 38.424C1125.31 38.1768 1125.17 37.8807 1125.17 37.5355C1125.17 37.1861 1125.31 36.8899 1125.57 36.647C1125.83 36.3999 1126.15 36.2763 1126.52 36.2763C1126.89 36.2763 1127.2 36.3999 1127.46 36.647C1127.73 36.8899 1127.86 37.1861 1127.86 37.5355C1127.86 37.8807 1127.73 38.1768 1127.46 38.424C1127.2 38.6669 1126.89 38.7884 1126.52 38.7884ZM1132.36 44.2472V50H1130.05V40.1818H1132.26V41.8501H1132.37C1132.6 41.3004 1132.96 40.8636 1133.45 40.5398C1133.95 40.2159 1134.57 40.054 1135.3 40.054C1135.98 40.054 1136.57 40.1989 1137.07 40.4886C1137.58 40.7784 1137.97 41.1982 1138.25 41.7479C1138.53 42.2976 1138.67 42.9645 1138.66 43.7486V50H1136.35V44.1065C1136.35 43.4503 1136.18 42.9368 1135.84 42.5661C1135.5 42.1953 1135.03 42.0099 1134.44 42.0099C1134.03 42.0099 1133.67 42.0994 1133.36 42.2784C1133.05 42.4531 1132.8 42.7067 1132.62 43.0391C1132.45 43.3714 1132.36 43.7741 1132.36 44.2472Z" fill="#444444"/>
</svg>
